<svg width="33" height="16" viewBox="0 0 33 16" fill="none" xmlns="http://www.w3.org/2000/svg">
<path fill-rule="evenodd" clip-rule="evenodd" d="M32.9556 7.92269C32.9556 5.60969 31.8356 3.78469 29.6946 3.78469C27.5446 3.78469 26.2436 5.60969 26.2436 7.90469C26.2436 10.6237 27.7786 11.9967 29.9836 11.9967C31.0586 11.9967 31.8716 11.7527 32.4856 11.4097V9.60269C31.8716 9.90969 31.1666 10.0997 30.2726 10.0997C29.3966 10.0997 28.6196 9.79269 28.5196 8.72669H32.9376C32.9376 8.60869 32.9556 8.13869 32.9556 7.92269ZM28.4926 7.06369C28.4926 6.04369 29.1166 5.61869 29.6856 5.61869C30.2356 5.61869 30.8236 6.04269 30.8236 7.06369H28.4926ZM22.7556 3.78469C21.8706 3.78469 21.3016 4.19969 20.9856 4.48869L20.8676 3.92869H18.8796V14.4637L21.1386 13.9837L21.1476 11.4277C21.4726 11.6627 21.9516 11.9977 22.7476 11.9977C24.3636 11.9977 25.8366 10.6957 25.8366 7.83169C25.8266 5.21169 24.3356 3.78469 22.7556 3.78469ZM22.2136 10.0097C21.6806 10.0097 21.3636 9.81969 21.1476 9.58469L21.1386 6.23269C21.3736 5.97069 21.6986 5.78969 22.2136 5.78969C23.0356 5.78969 23.6046 6.71169 23.6046 7.89469C23.6046 9.10569 23.0436 10.0097 22.2136 10.0097ZM18.0396 2.76369V0.929688L15.7716 1.40869V3.25169L18.0396 2.76369ZM15.7716 3.93769H18.0396V11.8427H15.7716V3.93769ZM13.3416 4.60669L13.1976 3.93769H11.2456V11.8437H13.5046V6.48569C14.0376 5.78969 14.9406 5.91569 15.2206 6.01569V3.93769C14.9316 3.82969 13.8746 3.63069 13.3416 4.60669ZM8.82464 1.97769L6.61964 2.44769L6.61064 9.68369C6.61064 11.0207 7.61364 12.0057 8.95064 12.0057C9.69164 12.0057 10.2336 11.8707 10.5316 11.7077V9.87369C10.2426 9.99069 8.81564 10.4067 8.81564 9.06969V5.86269H10.5316V3.93769H8.81564L8.82464 1.97769ZM2.71764 6.23269C2.71764 5.88069 3.00664 5.74469 3.48464 5.74469C4.17164 5.74469 5.03864 5.95269 5.72564 6.32269V4.19969C5.01262 3.91856 4.25205 3.77766 3.48564 3.78469C1.65064 3.78469 0.431641 4.74169 0.431641 6.34169C0.431641 8.83469 3.86464 8.43769 3.86464 9.51169C3.86464 9.92769 3.50364 10.0637 2.99764 10.0637C2.24764 10.0637 1.28964 9.75669 0.530641 9.34069V11.4907C1.37064 11.8527 2.22064 12.0057 2.99764 12.0057C4.87664 12.0057 6.16764 11.0757 6.16764 9.45769C6.15964 6.76569 2.71764 7.24469 2.71764 6.23269Z" fill="white" fill-opacity="0.4"/>
</svg>
