<svg width="16" height="16" viewBox="0 0 16 16" fill="none" xmlns="http://www.w3.org/2000/svg">
<g clip-path="url(#clip0_583_25297)">
<g clip-path="url(#clip1_583_25297)">
<g clip-path="url(#clip2_583_25297)">
<path fill-rule="evenodd" clip-rule="evenodd" d="M-803.691 -205.539H771.693V1182.77H-803.691V-205.539Z" fill="white"/>
<path d="M5.00271 7.50031V14H6.50056V7.50031H9.50363V14H11.0027V7.50031H14.0033V14H14.7713C15.0977 14 15.4108 14.1297 15.6416 14.3605C15.8724 14.5913 16.0021 14.9043 16.0021 15.2308V16H0.00209606V15.2308C0.00209606 14.9043 0.131766 14.5913 0.36258 14.3605C0.593394 14.1297 0.906445 14 1.23287 14H2.0021V7.50031H5.00271ZM8.0021 0C12.6827 2.57231 15.1836 3.95077 15.5024 4.13415C15.694 4.24537 15.8433 4.41702 15.9268 4.62219C16.0103 4.82736 16.0234 5.05445 15.964 5.26786C15.9046 5.48128 15.7761 5.66894 15.5985 5.80144C15.421 5.93393 15.2045 6.00377 14.983 6H1.02117C0.799154 6.00484 0.581847 5.9356 0.403559 5.8032C0.22527 5.6708 0.0961582 5.48279 0.0366057 5.26886C-0.0229469 5.05492 -0.00954712 4.82724 0.0746895 4.62176C0.158926 4.41629 0.309201 4.24472 0.501788 4.13415C0.821788 3.94954 3.32025 2.57108 8.0021 0Z" fill="black"/>
<mask id="mask0_583_25297" style="mask-type:luminance" maskUnits="userSpaceOnUse" x="0" y="0" width="17" height="16">
<path d="M5.00271 7.50031V14H6.50056V7.50031H9.50363V14H11.0027V7.50031H14.0033V14H14.7713C15.0977 14 15.4108 14.1297 15.6416 14.3605C15.8724 14.5913 16.0021 14.9043 16.0021 15.2308V16H0.00209606V15.2308C0.00209606 14.9043 0.131766 14.5913 0.36258 14.3605C0.593394 14.1297 0.906445 14 1.23287 14H2.0021V7.50031H5.00271ZM8.0021 0C12.6827 2.57231 15.1836 3.95077 15.5024 4.13415C15.694 4.24537 15.8433 4.41702 15.9268 4.62219C16.0103 4.82736 16.0234 5.05445 15.964 5.26786C15.9046 5.48128 15.7761 5.66894 15.5985 5.80144C15.421 5.93393 15.2045 6.00377 14.983 6H1.02117C0.799154 6.00484 0.581847 5.9356 0.403559 5.8032C0.22527 5.6708 0.0961582 5.48279 0.0366057 5.26886C-0.0229469 5.05492 -0.00954712 4.82724 0.0746895 4.62176C0.158926 4.41629 0.309201 4.24472 0.501788 4.13415C0.821788 3.94954 3.32025 2.57108 8.0021 0Z" fill="white"/>
</mask>
<g mask="url(#mask0_583_25297)">
<path fill-rule="evenodd" clip-rule="evenodd" d="M0.00390625 0H16.0039V16H0.00390625V0Z" fill="#2B2D50"/>
</g>
</g>
</g>
</g>
<defs>
<clipPath id="clip0_583_25297">
<rect width="16" height="16" fill="white"/>
</clipPath>
<clipPath id="clip1_583_25297">
<rect width="16" height="16" fill="white"/>
</clipPath>
<clipPath id="clip2_583_25297">
<rect width="16" height="16" fill="white"/>
</clipPath>
</defs>
</svg>
