<svg width="28" height="16" viewBox="0 0 28 16" fill="none" xmlns="http://www.w3.org/2000/svg">
<g clip-path="url(#clip0_583_25360)">
<g clip-path="url(#clip1_583_25360)">
<g clip-path="url(#clip2_583_25360)">
<path d="M0.207031 16H4.72489C5.7527 16 6.98382 14.8053 6.98382 13.8667V0H2.46596C1.43815 0 0.207031 1.19467 0.207031 3.2V16Z" fill="#047AB1"/>
<path d="M2.77092 10.8186C1.90358 10.8188 1.04052 10.7039 0.207031 10.4773V9.30394C0.85382 9.68164 1.59313 9.89478 2.35301 9.9226C3.2227 9.9226 3.70837 9.3466 3.70837 8.55727V5.33594H5.85435V8.55727C5.85435 9.81594 5.15409 10.8186 2.77092 10.8186Z" fill="white"/>
<path d="M8.11328 16H12.6311C13.659 16 14.8901 14.8053 14.8901 13.8667V0H10.3722C9.3444 0 8.11328 1.19467 8.11328 3.2V16Z" fill="#D42D06"/>
<path d="M8.11328 6.07712C8.76837 5.47979 9.89783 5.10646 11.7276 5.19179C12.7215 5.23446 13.7606 5.51179 13.7606 5.51179V6.69579C13.1663 6.35632 12.4982 6.14844 11.8066 6.08779C10.4174 5.97046 9.57029 6.70646 9.57029 7.99712C9.57029 9.28779 10.4174 10.0238 11.8066 9.91712C12.4986 9.85106 13.1663 9.63968 13.7606 9.29846V10.4718C13.7606 10.4718 12.7215 10.7598 11.7276 10.8025C9.89783 10.8878 8.76837 10.5145 8.11328 9.91712V6.07712Z" fill="white"/>
<path d="M16.0195 16H20.5374C21.5652 16 22.7963 14.8053 22.7963 13.8667V0H18.2785C17.2506 0 16.0195 1.19467 16.0195 3.2V16Z" fill="#67B637"/>
<path d="M21.6669 9.2826C21.6669 10.1359 20.9666 10.6693 20.0291 10.6693H16.0195V5.33594H19.6677L19.9275 5.3466C20.752 5.38927 21.3619 5.84794 21.3619 6.63727C21.3619 7.25594 20.944 7.78927 20.1873 7.91727V7.94927C21.0231 8.0026 21.6669 8.50394 21.6669 9.2826ZM18.7867 6.1786C18.7381 6.17174 18.689 6.16817 18.6399 6.16794H17.2845V7.51194H18.7867C19.0691 7.44794 19.3063 7.2026 19.3063 6.83994C19.3063 6.47727 19.0691 6.23194 18.7867 6.1786ZM18.9561 8.3546C18.8964 8.34574 18.8359 8.34217 18.7754 8.34394H17.2845V9.80527H18.7754L18.9561 9.78394C19.2385 9.71994 19.4757 9.4426 19.4757 9.06927C19.4757 8.69594 19.2498 8.42927 18.9561 8.3546Z" fill="white"/>
</g>
</g>
</g>
<defs>
<clipPath id="clip0_583_25360">
<rect width="23" height="16" fill="white"/>
</clipPath>
<clipPath id="clip1_583_25360">
<rect width="23" height="16" fill="white"/>
</clipPath>
<clipPath id="clip2_583_25360">
<rect width="23" height="16" fill="white"/>
</clipPath>
</defs>
</svg>
