<svg width="25" height="16" viewBox="0 0 25 16" fill="none" xmlns="http://www.w3.org/2000/svg">
<path opacity="0.2" fill-rule="evenodd" clip-rule="evenodd" d="M16.5107 1.52344H1.52313C0.822488 1.52344 0 2.33086 0 3.04688V14.4727C0 15.1887 0.822488 15.9961 1.52313 15.9961H20.5622C21.2628 15.9961 22.0853 15.1887 22.0853 14.4727V8.73691C21.4438 9.31414 20.6514 9.69718 19.8006 9.84141V9.90234C19.8006 10.4051 19.5265 10.6641 19.0391 10.6641H2.28469C1.79729 10.6641 1.52313 10.4051 1.52313 9.90234V9.14062C1.52313 8.63789 1.79729 8.37891 2.28469 8.37891H15.6349C15.1953 7.89162 14.8661 7.31506 14.67 6.68872C14.4739 6.06237 14.4154 5.40103 14.4986 4.74998C14.5817 4.09893 14.8046 3.47355 15.1519 2.91665C15.4992 2.35976 15.9627 1.8845 16.5107 1.52344Z" fill="#565656"/>
<path opacity="0.3" fill-rule="evenodd" clip-rule="evenodd" d="M14.7286 3.8125H0V6.09766H14.5306C14.4027 5.33143 14.4708 4.54528 14.7286 3.8125Z" fill="#565656"/>
<path fill-rule="evenodd" clip-rule="evenodd" d="M19.038 10.6641C17.6241 10.6641 16.2682 10.1023 15.2684 9.10235C14.2687 8.1024 13.707 6.74617 13.707 5.33203C13.707 3.91789 14.2687 2.56167 15.2684 1.56172C16.2682 0.561766 17.6241 0 19.038 0C20.4518 0 21.8078 0.561766 22.8075 1.56172C23.8073 2.56167 24.3689 3.91789 24.3689 5.33203C24.3689 6.74617 23.8073 8.1024 22.8075 9.10235C21.8078 10.1023 20.4518 10.6641 19.038 10.6641ZM16.9208 3.12305H16.3192L14.8494 3.86953V4.63125L16.0146 4.02188V7.54102H16.9284V3.12305H16.9208ZM18.6724 3.73242C19.1065 3.73242 19.4111 3.97617 19.4111 4.32656C19.4111 4.70742 19.0532 4.97402 18.5353 4.97402H18.3069V5.62148H18.581C19.1294 5.62148 19.5025 5.8957 19.5025 6.2918C19.5025 6.67266 19.137 6.93164 18.6191 6.93164C18.2383 6.93164 17.8575 6.80977 17.4615 6.57363V7.33535C17.888 7.51816 18.3145 7.61719 18.7333 7.61719C19.731 7.61719 20.4164 7.10684 20.4164 6.36797C20.4164 5.85 20.0965 5.43105 19.5634 5.26348C20.0204 5.11113 20.3174 4.70742 20.3174 4.25039C20.3174 3.53437 19.6853 3.04688 18.7714 3.04688C18.3595 3.05145 17.9527 3.13955 17.5758 3.30586V4.05234C17.9413 3.84668 18.3145 3.73242 18.6724 3.73242ZM21.9624 5.39297C22.5183 5.39297 22.9067 5.72051 22.9067 6.14707C22.9067 6.59648 22.5183 6.90879 21.9624 6.90879C21.6273 6.90879 21.277 6.80215 20.919 6.58125V7.36582C21.2922 7.5334 21.673 7.61719 22.0461 7.61719C22.2441 7.61719 22.4269 7.58672 22.6021 7.54102C22.9981 6.89355 23.2266 6.14707 23.2266 5.34727L23.2113 5.02734C22.9282 4.85971 22.6035 4.77523 22.2746 4.78359C22.1375 4.78359 21.9928 4.79121 21.8405 4.81406V3.82383H22.9372C22.8421 3.58001 22.7248 3.34544 22.5869 3.12305H21.0485V5.52246C21.3531 5.44629 21.6577 5.39297 21.9624 5.39297Z" fill="#565656"/>
</svg>
