<svg width="33" height="16" viewBox="0 0 33 16" fill="none" xmlns="http://www.w3.org/2000/svg">
<path fill-rule="evenodd" clip-rule="evenodd" d="M32.9576 7.92269C32.9576 5.60969 31.8376 3.78469 29.6966 3.78469C27.5466 3.78469 26.2456 5.60969 26.2456 7.90469C26.2456 10.6237 27.7806 11.9967 29.9856 11.9967C31.0606 11.9967 31.8736 11.7527 32.4876 11.4097V9.60269C31.8736 9.90969 31.1686 10.0997 30.2746 10.0997C29.3986 10.0997 28.6216 9.79269 28.5216 8.72669H32.9396C32.9396 8.60869 32.9576 8.13869 32.9576 7.92269ZM28.4946 7.06369C28.4946 6.04369 29.1186 5.61869 29.6876 5.61869C30.2376 5.61869 30.8256 6.04269 30.8256 7.06369H28.4946ZM22.7576 3.78469C21.8726 3.78469 21.3036 4.19969 20.9876 4.48869L20.8696 3.92869H18.8816V14.4637L21.1406 13.9837L21.1496 11.4277C21.4746 11.6627 21.9536 11.9977 22.7496 11.9977C24.3656 11.9977 25.8386 10.6957 25.8386 7.83169C25.8286 5.21169 24.3376 3.78469 22.7576 3.78469ZM22.2156 10.0097C21.6826 10.0097 21.3656 9.81969 21.1496 9.58469L21.1406 6.23269C21.3756 5.97069 21.7006 5.78969 22.2156 5.78969C23.0376 5.78969 23.6066 6.71169 23.6066 7.89469C23.6066 9.10569 23.0456 10.0097 22.2156 10.0097ZM18.0416 2.76369V0.929688L15.7736 1.40869V3.25169L18.0416 2.76369ZM15.7736 3.93769H18.0416V11.8427H15.7736V3.93769ZM13.3436 4.60669L13.1996 3.93769H11.2476V11.8437H13.5066V6.48569C14.0396 5.78969 14.9426 5.91569 15.2226 6.01569V3.93769C14.9336 3.82969 13.8766 3.63069 13.3436 4.60669ZM8.82659 1.97769L6.62159 2.44769L6.61259 9.68369C6.61259 11.0207 7.61559 12.0057 8.95259 12.0057C9.69359 12.0057 10.2356 11.8707 10.5336 11.7077V9.87369C10.2446 9.99069 8.81759 10.4067 8.81759 9.06969V5.86269H10.5336V3.93769H8.81759L8.82659 1.97769ZM2.71959 6.23269C2.71959 5.88069 3.00859 5.74469 3.48659 5.74469C4.17359 5.74469 5.04059 5.95269 5.72759 6.32269V4.19969C5.01457 3.91856 4.254 3.77766 3.48759 3.78469C1.65259 3.78469 0.433594 4.74169 0.433594 6.34169C0.433594 8.83469 3.86659 8.43769 3.86659 9.51169C3.86659 9.92769 3.50559 10.0637 2.99959 10.0637C2.24959 10.0637 1.29159 9.75669 0.532594 9.34069V11.4907C1.37259 11.8527 2.22259 12.0057 2.99959 12.0057C4.87859 12.0057 6.16959 11.0757 6.16959 9.45769C6.16159 6.76569 2.71959 7.24469 2.71959 6.23269Z" fill="white" fill-opacity="0.4"/>
</svg>
