<svg width="85" height="93" viewBox="0 0 85 93" fill="none" xmlns="http://www.w3.org/2000/svg">
<g clip-path="url(#clip0_985_26737)">
<path fill-rule="evenodd" clip-rule="evenodd" d="M84.3642 41.3478L72.5341 -0.000489951H42.182H11.8301L0 41.3478L42.182 92.9993L84.3642 41.3478Z" fill="#45E555"/>
<path d="M27.2357 27.753L32.4307 30.0374L35.6746 40.4808L42.1407 43.8003L42.0576 50.3399M42.0576 50.3399L30.6811 53.478L28.4473 53.983L16.2751 39.4222L23.5408 14.6133H42.1821H60.8235L68.0893 39.4222L55.9214 53.9777L53.4341 53.478L42.0576 50.3399Z" stroke="black" stroke-width="6.62021"/>
<path d="M34.279 60.9607L42.1811 70.4135L50.0729 60.9731" stroke="black" stroke-width="6.62021"/>
<path d="M42.1401 43.8012L48.44 40.4805L51.684 30.0372L56.8789 27.7528" stroke="black" stroke-width="6.62021"/>
</g>
<defs>
<clipPath id="clip0_985_26737">
<rect width="84.4444" height="92.6829" fill="white" transform="scale(1.00342)"/>
</clipPath>
</defs>
</svg>
