<svg width="16" height="16" viewBox="0 0 16 16" fill="none" xmlns="http://www.w3.org/2000/svg">
<g clip-path="url(#clip0_640_28378)">
<g clip-path="url(#clip1_640_28378)">
<g clip-path="url(#clip2_640_28378)">
<path fill-rule="evenodd" clip-rule="evenodd" d="M-803.691 -205.539H771.693V1182.77H-803.691V-205.539Z" fill="white"/>
<path d="M5.00076 7.50031V14H6.49861V7.50031H9.50168V14H11.0008V7.50031H14.0014V14H14.7694C15.0958 14 15.4088 14.1297 15.6397 14.3605C15.8705 14.5913 16.0001 14.9043 16.0001 15.2308V16H0.000142936V15.2308C0.000142936 14.9043 0.129813 14.5913 0.360627 14.3605C0.591441 14.1297 0.904492 14 1.23091 14H2.00014V7.50031H5.00076ZM8.00014 0C12.6808 2.57231 15.1817 3.95077 15.5005 4.13415C15.692 4.24537 15.8413 4.41702 15.9248 4.62219C16.0084 4.82736 16.0215 5.05445 15.9621 5.26786C15.9027 5.48128 15.7741 5.66894 15.5966 5.80144C15.419 5.93393 15.2026 6.00377 14.9811 6H1.01922C0.797201 6.00484 0.579894 5.9356 0.401606 5.8032C0.223317 5.6708 0.0942051 5.48279 0.0346525 5.26886C-0.0249 5.05492 -0.0115002 4.82724 0.0727363 4.62176C0.156973 4.41629 0.307247 4.24472 0.499835 4.13415C0.819835 3.94954 3.3183 2.57108 8.00014 0Z" fill="black"/>
<mask id="mask0_640_28378" style="mask-type:luminance" maskUnits="userSpaceOnUse" x="-1" y="0" width="17" height="16">
<path d="M5.00076 7.50031V14H6.49861V7.50031H9.50168V14H11.0008V7.50031H14.0014V14H14.7694C15.0958 14 15.4088 14.1297 15.6397 14.3605C15.8705 14.5913 16.0001 14.9043 16.0001 15.2308V16H0.000142936V15.2308C0.000142936 14.9043 0.129813 14.5913 0.360627 14.3605C0.591441 14.1297 0.904492 14 1.23091 14H2.00014V7.50031H5.00076ZM8.00014 0C12.6808 2.57231 15.1817 3.95077 15.5005 4.13415C15.692 4.24537 15.8413 4.41702 15.9248 4.62219C16.0084 4.82736 16.0215 5.05445 15.9621 5.26786C15.9027 5.48128 15.7741 5.66894 15.5966 5.80144C15.419 5.93393 15.2026 6.00377 14.9811 6H1.01922C0.797201 6.00484 0.579894 5.9356 0.401606 5.8032C0.223317 5.6708 0.0942051 5.48279 0.0346525 5.26886C-0.0249 5.05492 -0.0115002 4.82724 0.0727363 4.62176C0.156973 4.41629 0.307247 4.24472 0.499835 4.13415C0.819835 3.94954 3.3183 2.57108 8.00014 0Z" fill="white"/>
</mask>
<g mask="url(#mask0_640_28378)">
<path fill-rule="evenodd" clip-rule="evenodd" d="M0 0H16V16H0V0Z" fill="#2B2D50"/>
</g>
</g>
</g>
</g>
<defs>
<clipPath id="clip0_640_28378">
<rect width="16" height="16" fill="white"/>
</clipPath>
<clipPath id="clip1_640_28378">
<rect width="16" height="16" fill="white"/>
</clipPath>
<clipPath id="clip2_640_28378">
<rect width="16" height="16" fill="white"/>
</clipPath>
</defs>
</svg>
