<svg width="28" height="16" viewBox="0 0 28 16" fill="none" xmlns="http://www.w3.org/2000/svg">
<g clip-path="url(#clip0_640_28441)">
<g clip-path="url(#clip1_640_28441)">
<g clip-path="url(#clip2_640_28441)">
<path d="M0.205078 16H4.72294C5.75075 16 6.98186 14.8053 6.98186 13.8667V0H2.46401C1.43619 0 0.205078 1.19467 0.205078 3.2V16Z" fill="#047AB1"/>
<path d="M2.76896 10.8186C1.90163 10.8188 1.03857 10.7039 0.205078 10.4773V9.30394C0.851867 9.68164 1.59118 9.89478 2.35106 9.9226C3.22075 9.9226 3.70642 9.3466 3.70642 8.55727V5.33594H5.8524V8.55727C5.8524 9.81594 5.15213 10.8186 2.76896 10.8186Z" fill="white"/>
<path d="M8.11133 16H12.6292C13.657 16 14.8881 14.8053 14.8881 13.8667V0H10.3703C9.34244 0 8.11133 1.19467 8.11133 3.2V16Z" fill="#D42D06"/>
<path d="M8.11133 6.07712C8.76642 5.47979 9.89588 5.10646 11.7256 5.19179C12.7195 5.23446 13.7586 5.51179 13.7586 5.51179V6.69579C13.1643 6.35632 12.4963 6.14844 11.8047 6.08779C10.4154 5.97046 9.56834 6.70646 9.56834 7.99712C9.56834 9.28779 10.4154 10.0238 11.8047 9.91712C12.4967 9.85106 13.1643 9.63968 13.7586 9.29846V10.4718C13.7586 10.4718 12.7195 10.7598 11.7256 10.8025C9.89588 10.8878 8.76642 10.5145 8.11133 9.91712V6.07712Z" fill="white"/>
<path d="M16.0176 16H20.5354C21.5632 16 22.7944 14.8053 22.7944 13.8667V0H18.2765C17.2487 0 16.0176 1.19467 16.0176 3.2V16Z" fill="#67B637"/>
<path d="M21.6649 9.2826C21.6649 10.1359 20.9646 10.6693 20.0272 10.6693H16.0176V5.33594H19.6657L19.9255 5.3466C20.75 5.38927 21.3599 5.84794 21.3599 6.63727C21.3599 7.25594 20.942 7.78927 20.1853 7.91727V7.94927C21.0211 8.0026 21.6649 8.50394 21.6649 9.2826ZM18.7848 6.1786C18.7362 6.17174 18.6871 6.16817 18.6379 6.16794H17.2826V7.51194H18.7848C19.0671 7.44794 19.3043 7.2026 19.3043 6.83994C19.3043 6.47727 19.0671 6.23194 18.7848 6.1786ZM18.9542 8.3546C18.8944 8.34574 18.8339 8.34217 18.7735 8.34394H17.2826V9.80527H18.7735L18.9542 9.78394C19.2366 9.71994 19.4737 9.4426 19.4737 9.06927C19.4737 8.69594 19.2478 8.42927 18.9542 8.3546Z" fill="white"/>
</g>
</g>
</g>
<defs>
<clipPath id="clip0_640_28441">
<rect width="23" height="16" fill="white"/>
</clipPath>
<clipPath id="clip1_640_28441">
<rect width="23" height="16" fill="white"/>
</clipPath>
<clipPath id="clip2_640_28441">
<rect width="23" height="16" fill="white"/>
</clipPath>
</defs>
</svg>
