<svg width="12" height="12" viewBox="0 0 12 12" fill="none" xmlns="http://www.w3.org/2000/svg">
<path fill-rule="evenodd" clip-rule="evenodd" d="M10.1933 3.96995C10.3342 3.82912 10.5252 3.75 10.7243 3.75C10.9235 3.75 11.1145 3.82912 11.2553 3.96995C11.3962 4.11078 11.4753 4.30178 11.4753 4.50095C11.4753 4.70011 11.3962 4.89112 11.2553 5.03195L6.53034 9.75595C6.38971 9.8964 6.19909 9.97529 6.00034 9.97529C5.80159 9.97529 5.61096 9.8964 5.47034 9.75595L0.745338 5.03195C0.604508 4.89112 0.525391 4.70011 0.525391 4.50095C0.525391 4.30178 0.604508 4.11078 0.745338 3.96995C0.886168 3.82912 1.07717 3.75 1.27634 3.75C1.4755 3.75 1.66651 3.82912 1.80734 3.96995L6.00034 8.16295L10.1933 3.96995Z" fill="black"/>
</svg>
