<svg width="543" height="200" viewBox="0 0 543 200" fill="none" xmlns="http://www.w3.org/2000/svg">
<path fill-rule="evenodd" clip-rule="evenodd" d="M88.9999 68C107.778 68.0001 123 82.5509 123 100.5C123 118.449 107.778 133 88.9999 133C70.222 133 55 118.449 55 100.5C55 100.49 55 100.48 55 100.47H67.7506C67.7506 100.48 67.7506 100.49 67.7506 100.501C67.7506 111.718 77.2635 120.813 88.9999 120.813C100.736 120.813 110.249 111.718 110.249 100.501C110.249 89.2823 100.736 80.188 88.9999 80.188V68Z" fill="#1B1B1B"/>
<path fill-rule="evenodd" clip-rule="evenodd" d="M34.0001 133C15.2225 133 0 118.448 0 100.5C0 82.5506 15.2225 68 34.0003 68C52.7781 68 68 82.5506 68 100.5C68 100.51 68 100.52 68 100.53H55.2504C55.2504 100.52 55.2504 100.51 55.2504 100.499C55.2504 89.2812 45.7363 80.187 34.0001 80.187C22.2641 80.187 12.75 89.2812 12.75 100.499C12.75 111.717 22.2641 120.812 34.0001 120.812V133Z" fill="#1B1B1B"/>
<path fill-rule="evenodd" clip-rule="evenodd" d="M95 128C94.9988 146.778 80.2245 162 61.9997 162C43.7745 162 29 146.778 29 128C29 109.222 43.7745 94 61.9997 94C62.0101 94 62.0206 94 62.0311 94V106.749C62.0206 106.749 62.0101 106.749 61.9997 106.749C50.609 106.749 41.3748 116.264 41.3748 128C41.3748 139.736 50.609 149.249 61.9997 149.249C73.3899 149.249 82.6243 139.736 82.6243 128H95Z" fill="#1B1B1B"/>
<path fill-rule="evenodd" clip-rule="evenodd" d="M29 72.9997C29.0002 54.2222 43.7749 39 62.0002 39C80.2256 39 95 54.2225 95 73.0003C95 91.7781 80.2256 107 62.0002 107C61.9897 107 61.9793 107 61.9689 107V94.2504C61.9793 94.2504 61.9897 94.2504 62.0002 94.2504C73.3909 94.2504 82.6254 84.7364 82.6254 73.0003C82.6254 61.2641 73.3909 51.7501 62.0002 51.7501C50.6094 51.7501 41.3753 61.2639 41.3751 72.9997H29Z" fill="#1B1B1B"/>
<path d="M543 67V131.509H530.48V124.892C528.642 127.726 526.548 129.786 524.198 131.072C521.848 132.357 518.924 133 515.429 133C509.674 133 504.823 130.75 500.875 126.25C496.959 121.722 495 115.923 495 108.852C495 100.701 496.929 94.2879 500.785 89.6133C504.672 84.9388 509.855 82.6015 516.334 82.6015C519.317 82.6015 521.968 83.2442 524.288 84.5297C526.608 85.786 528.491 87.5389 529.938 89.7887V67H543ZM508.288 107.932C508.288 112.344 509.192 115.865 511 118.494C512.777 121.153 515.489 122.482 519.136 122.482C522.782 122.482 525.554 121.167 527.452 118.538C529.35 115.908 530.3 112.504 530.3 108.327C530.3 102.483 528.778 98.3052 525.734 95.7926C523.867 94.2734 521.698 93.5138 519.226 93.5138C515.459 93.5138 512.687 94.9015 510.91 97.6771C509.162 100.423 508.288 103.841 508.288 107.932Z" fill="#1B1B1B"/>
<path d="M449.181 88.386C452.575 84.1287 458.403 82 466.662 82C472.039 82 476.814 83.0495 480.989 85.1486C485.163 87.2478 487.252 91.2095 487.252 97.0337V119.207C487.252 120.745 487.282 122.607 487.342 124.795C487.431 126.451 487.687 127.574 488.107 128.166C488.527 128.757 489.158 129.244 490 129.628V131.492H476.034C475.642 130.516 475.373 129.599 475.222 128.742C475.072 127.884 474.951 126.909 474.862 125.815C473.09 127.708 471.047 129.318 468.734 130.648C465.971 132.216 462.848 133 459.363 133C454.918 133 451.238 131.758 448.325 129.274C445.441 126.761 444 123.213 444 118.63C444 112.689 446.328 108.387 450.984 105.726C453.536 104.277 457.291 103.242 462.247 102.622L466.617 102.089C468.99 101.794 470.687 101.424 471.708 100.981C473.54 100.212 474.456 99.0145 474.456 97.3885C474.456 95.4076 473.751 94.0477 472.339 93.3085C470.958 92.5398 468.915 92.1555 466.212 92.1555C463.178 92.1555 461.03 92.8946 459.769 94.3728C458.868 95.4668 458.267 96.945 457.966 98.8076H445.577C445.848 94.5799 447.049 91.106 449.181 88.386ZM458.733 122.356C459.934 123.332 461.405 123.819 463.148 123.819C465.911 123.819 468.449 123.022 470.762 121.425C473.105 119.828 474.322 116.916 474.411 112.689V107.988C473.6 108.49 472.774 108.904 471.933 109.229C471.122 109.525 469.996 109.806 468.555 110.072L465.671 110.603C462.968 111.077 461.03 111.654 459.859 112.334C457.877 113.486 456.885 115.275 456.885 117.7C456.885 119.858 457.501 121.41 458.733 122.356Z" fill="#1B1B1B"/>
<path d="M422 67H435V132H422V67Z" fill="#1B1B1B"/>
<path d="M379.754 139.735C381.124 140.885 383.432 141.459 386.678 141.459C391.265 141.459 394.333 139.942 395.882 136.909C396.895 134.965 397.401 131.696 397.401 127.102V124.01C396.18 126.071 394.87 127.617 393.47 128.648C390.938 130.563 387.646 131.52 383.596 131.52C377.342 131.52 372.338 129.355 368.585 125.026C364.862 120.667 363 114.777 363 107.356C363 100.2 364.802 94.192 368.406 89.3329C372.01 84.4443 377.118 82 383.73 82C386.172 82 388.301 82.3681 390.119 83.1043C393.216 84.3707 395.718 86.6972 397.624 90.0839V83.1485H410V128.825C410 135.038 408.943 139.721 406.827 142.872C403.195 148.291 396.225 151 385.919 151C379.695 151 374.616 149.793 370.685 147.378C366.753 144.963 364.579 141.355 364.162 136.556H378.012C378.369 138.027 378.95 139.087 379.754 139.735ZM377.61 114.866C379.337 118.93 382.435 120.962 386.902 120.962C389.88 120.962 392.397 119.858 394.453 117.649C396.508 115.41 397.535 111.862 397.535 107.003C397.535 102.438 396.552 98.9629 394.586 96.5775C392.65 94.1921 390.044 92.9994 386.768 92.9994C382.3 92.9994 379.217 95.0756 377.52 99.228C376.627 101.436 376.179 104.16 376.179 107.4C376.179 110.198 376.657 112.686 377.61 114.866Z" fill="#1B1B1B"/>
<path d="M332.585 132L324.887 97.0348L317.1 132H303.775L290 84H303.775L311.428 118.437L318.496 84H331.505L338.978 118.568L346.631 84H360L345.775 132H332.585Z" fill="#1B1B1B"/>
<path d="M278.93 89.5865C282.977 94.644 285 100.623 285 107.522C285 114.538 282.977 120.546 278.93 125.545C274.884 130.516 268.74 133 260.5 133C252.26 133 246.117 130.516 242.07 125.545C238.023 120.546 236 114.538 236 107.522C236 100.623 238.023 94.644 242.07 89.5865C246.117 84.5287 252.26 82 260.5 82C268.74 82 274.884 84.5287 278.93 89.5865ZM260.456 92.5684C256.791 92.5684 253.96 93.8693 251.967 96.4712C250.002 99.0438 249.019 102.727 249.019 107.522C249.019 112.316 250.002 116.015 251.967 118.616C253.96 121.218 256.791 122.519 260.456 122.519C264.122 122.519 266.937 121.218 268.901 118.616C270.866 116.015 271.848 112.316 271.848 107.522C271.848 102.727 270.866 99.0438 268.901 96.4712C266.937 93.8693 264.122 92.5684 260.456 92.5684Z" fill="#1B1B1B"/>
<path d="M214 67H226V132H214V67Z" fill="#1B1B1B"/>
<path d="M205 78.4368H172.47V93.4062H200.951V104.711H172.47V132H159V67H205V78.4368Z" fill="#1B1B1B"/>
</svg>
