<svg width="35" height="15" viewBox="0 0 35 15" fill="none" xmlns="http://www.w3.org/2000/svg">
<path fill-rule="evenodd" clip-rule="evenodd" d="M35.0002 7.54473C35.0002 5.0493 33.7946 3.08025 31.4904 3.08025C29.1765 3.08025 27.7765 5.0493 27.7765 7.52523C27.7765 10.4593 29.4293 11.941 31.8015 11.941C32.9585 11.941 33.8335 11.6778 34.4946 11.3074V9.35781C33.8335 9.68924 33.0752 9.89394 32.1127 9.89394C31.1696 9.89394 30.3334 9.56252 30.2265 8.41228H34.9808C34.9808 8.28556 35.0002 7.77867 35.0002 7.54473ZM30.1973 6.61869C30.1973 5.51719 30.8682 5.05905 31.4807 5.05905C32.0738 5.05905 32.7057 5.51719 32.7057 6.61869H30.1973Z" fill="black"/>
<path fill-rule="evenodd" clip-rule="evenodd" d="M24.0246 3.08025C23.0718 3.08025 22.4593 3.52865 22.119 3.84058L21.9926 3.23621H19.8536V14.6021L22.2843 14.0855L22.294 11.3269C22.644 11.5803 23.1593 11.941 24.0148 11.941C25.7552 11.941 27.3399 10.5373 27.3399 7.44725C27.3302 4.6204 25.726 3.08025 24.0246 3.08025ZM23.4412 9.79646C22.8676 9.79646 22.5273 9.59176 22.294 9.33832L22.2843 5.72189C22.537 5.43921 22.887 5.24425 23.4412 5.24425C24.326 5.24425 24.9385 6.23853 24.9385 7.51548C24.9385 8.82168 24.3357 9.79646 23.4412 9.79646Z" fill="black"/>
<path fill-rule="evenodd" clip-rule="evenodd" d="M16.5097 2.50518L18.95 1.9788V0L16.5097 0.516632V2.50518Z" fill="black"/>
<path d="M18.95 3.24627H16.5097V11.7756H18.95V3.24627Z" fill="black"/>
<path fill-rule="evenodd" clip-rule="evenodd" d="M13.8925 3.96778L13.7369 3.24644H11.6369V11.7757H14.0675V5.99531C14.6411 5.24473 15.6134 5.3812 15.9147 5.48843V3.24644C15.6036 3.12947 14.4661 2.91502 13.8925 3.96778Z" fill="black"/>
<path fill-rule="evenodd" clip-rule="evenodd" d="M9.03227 1.12995L6.66 1.63683L6.65027 9.44479C6.65027 10.8875 7.72946 11.95 9.16838 11.95C9.96562 11.95 10.549 11.8038 10.8698 11.6283V9.64949C10.5587 9.77622 9.02254 10.2246 9.02254 8.78194V5.32149H10.8698V3.24521H9.02254L9.03227 1.12995Z" fill="black"/>
<path fill-rule="evenodd" clip-rule="evenodd" d="M2.45977 5.72189C2.45977 5.34173 2.77089 5.19552 3.28618 5.19552C4.02508 5.19552 4.95844 5.41971 5.69734 5.81937V3.52865C4.89038 3.20697 4.09314 3.08025 3.28618 3.08025C1.31253 3.08025 0 4.11351 0 5.83887C0 8.52925 3.69452 8.10035 3.69452 9.26033C3.69452 9.70873 3.30562 9.85495 2.76117 9.85495C1.95421 9.85495 0.92363 9.52353 0.106946 9.07513V11.3951C1.01113 11.785 1.92504 11.9507 2.76117 11.9507C4.78343 11.9507 6.17374 10.9467 6.17374 9.20185C6.16402 6.29701 2.45977 6.81364 2.45977 5.72189Z" fill="black"/>
</svg>
