<svg width="500" height="500" viewBox="0 0 500 500" fill="none" xmlns="http://www.w3.org/2000/svg">
<g clip-path="url(#clip0_1_48)">
<rect width="500" height="500" fill="white"/>
<path fill-rule="evenodd" clip-rule="evenodd" d="M500 0H0V500H500V0Z" fill="#1b1b1b"/>
<path fill-rule="evenodd" clip-rule="evenodd" d="M328.449 154.473C328.45 154.473 328.45 154.473 328.45 154.473C381.774 154.473 425.002 197.269 425.002 250.061C425.002 302.853 381.774 345.649 328.45 345.649C275.126 345.649 231.898 302.853 231.898 250.061C231.898 250.03 231.898 250 231.898 249.969H268.104C268.104 249.999 268.104 250.03 268.104 250.06C268.104 283.055 295.121 309.803 328.449 309.803C361.776 309.803 388.794 283.055 388.794 250.06C388.794 217.066 361.777 190.318 328.449 190.318V154.473Z" fill="white"/>
<path fill-rule="evenodd" clip-rule="evenodd" d="M171.553 345.467C171.552 345.467 171.552 345.467 171.552 345.467C118.228 345.467 75 302.671 75 249.879C75 197.087 118.228 154.291 171.552 154.291C224.876 154.291 268.104 197.087 268.104 249.879C268.104 249.909 268.104 249.94 268.104 249.971H231.898C231.898 249.94 231.898 249.91 231.898 249.88C231.898 216.885 204.881 190.137 171.553 190.137C138.226 190.137 111.208 216.885 111.208 249.88C111.208 282.874 138.225 309.622 171.553 309.622V345.467Z" fill="white"/>
<path fill-rule="evenodd" clip-rule="evenodd" d="M345.471 328.447C345.471 328.448 345.471 328.448 345.471 328.449C345.471 381.773 302.674 425 249.882 425C197.09 425 154.293 381.773 154.293 328.449C154.293 275.125 197.09 231.898 249.882 231.898C249.913 231.898 249.943 231.898 249.974 231.898V268.103C249.943 268.103 249.912 268.103 249.882 268.103C216.887 268.103 190.139 295.12 190.139 328.448C190.139 361.775 216.887 388.792 249.882 388.792C282.877 388.792 309.625 361.775 309.625 328.448C309.625 328.448 309.625 328.447 309.625 328.447H345.471Z" fill="white"/>
<path fill-rule="evenodd" clip-rule="evenodd" d="M154.479 171.553C154.479 171.552 154.479 171.552 154.479 171.551C154.479 118.227 197.275 75 250.067 75C302.859 75 345.656 118.227 345.656 171.551C345.656 224.875 302.859 268.102 250.067 268.102C250.037 268.102 250.006 268.102 249.975 268.102V231.897C250.007 231.897 250.038 231.897 250.069 231.897C283.064 231.897 309.812 204.88 309.812 171.552C309.812 138.225 283.064 111.208 250.069 111.208C217.074 111.208 190.326 138.225 190.326 171.552C190.326 171.552 190.326 171.553 190.326 171.553H154.479Z" fill="white"/>
</g>
<defs>
<clipPath id="clip0_1_48">
<rect width="500" height="500" fill="white"/>
</clipPath>
</defs>
</svg>
