<svg width="21" height="12" viewBox="0 0 21 12" fill="none" xmlns="http://www.w3.org/2000/svg">
<g opacity="0.4">
<path fill-rule="evenodd" clip-rule="evenodd" d="M2.56259 5.24826H11.2498C11.4488 5.24826 11.6395 5.32728 11.7802 5.46793C11.9208 5.60858 11.9998 5.79935 11.9998 5.99826C11.9998 6.19717 11.9208 6.38794 11.7802 6.52859C11.6395 6.66924 11.4488 6.74826 11.2498 6.74826H2.56259L6.00584 10.1915C6.14667 10.3322 6.22583 10.5232 6.2259 10.7222C6.22597 10.9213 6.14695 11.1123 6.00622 11.2531C5.86548 11.394 5.67457 11.4731 5.47548 11.4732C5.27639 11.4733 5.08542 11.3942 4.94459 11.2535L0.21959 6.52851C0.0789866 6.38786 0 6.19713 0 5.99826C0 5.79939 0.0789866 5.60866 0.21959 5.46801L4.94459 0.74301C5.08552 0.60228 5.27658 0.523297 5.47575 0.523438C5.67491 0.523578 5.86586 0.602831 6.00659 0.74376C6.14732 0.88469 6.2263 1.07575 6.22616 1.27492C6.22602 1.47408 6.14677 1.66503 6.00584 1.80576L2.56259 5.24826Z" fill="white"/>
</g>
</svg>
